<?xml version="1.0" encoding="UTF-8"?>
<svg id="_レイヤー_1" data-name="レイヤー 1" xmlns="http://www.w3.org/2000/svg" viewBox="0 0 292.85 88.69">
  <defs>
    <style>
      .cls-1 {
        fill: #4aaae0;
      }

      .cls-1, .cls-2, .cls-3 {
        stroke-width: 0px;
      }

      .cls-2 {
        fill: #f6d75c;
      }

      .cls-3 {
        fill: #ea5755;
      }
    </style>
  </defs>
  <path class="cls-3" d="M53.9,64.12c-2.61-.16-3.34-.18-6.57-.25-2.09-.05-3.34-.18-5.42-.33-2.61.05-5.22.09-7.94.13-1.88.17-3.23-.18-5.11-.22s-3.44-.39-5.32-.33c-1.67-.04-2.61.05-3.86.02-.23,5.53-.55,10.74-.9,16.69-.19,3.65-.18,3.34-.51,8.86-4.58-.52-10.12-.23-18.26-.72.22-5.01.36-6.57.6-12.73.2-4.07.36-6.57.66-10.64.12-5.11.23-10.33.35-15.55-.02-3.66.7-12.62.89-16.27.08-3.65.57-6.67.65-10.32.11-4.7.15-6.47.35-11.06,1.57.04,3.13.17,4.8,0,.84-.09,1.56.24,2.4.26,2.5.06,5.01-.1,7.41.27,1.35.13,2.61-.05,3.86.19-.33,5.32-.49,7.82-.71,13.14-.12,5.43-.49,12.73-.75,19.51,1.46.03,2.71.06,4.49.1,4.49,0,8.04.08,12.42.17s7.93.28,12.31.49c1.88.15,1.67.04,4.59.31-.31,4.59-.12,10.02-.41,18.26Z"/>
  <path class="cls-2" d="M128.73,62.46c-3.78,1.84-6.63,2.96-10.82,4.9-6.94,3.16-10.31,3.88-17.35,6.43-7.04,2.45-17.15,5.31-24.29,7.04-3.06.82-2.86.41-5.21,1.02-.2-5-.2-3.57-.31-6.84-.2-7.45-.2-14.9-.31-22.35-.1-7.55,0-13.06-.1-20.62-.1-4.59-.2-11.94-.31-16.54,1.23-.2,2.45-.1,3.68-.1,2.45-.31,4.9-.1,7.25-.1.82,0,5.92-.1,7.55-.1,0,3.98,0,10.61.1,14.7,0,3.16-.1,6.43,0,9.7,0,3.16.2,4.39.1,7.66-.1,3.88-.1,7.76-.1,11.64,3.47-1.02,6.64-1.94,8.17-2.45,4.29-1.53,5.51-1.94,8.57-3.06,3.06-1.12,5.2-2.65,8.27-3.78,3.78-1.33,3.67-1.73,7.55-3.47.51,1.43,2.76,5.72,3.06,6.43.82,2.25,2.35,4.29,2.96,6.63.41,1.23,1.33,2.04,1.53,3.27Z"/>
  <path class="cls-2" d="M292.85,61.29c-3.78,1.84-6.63,2.96-10.82,4.9-6.94,3.16-10.31,3.88-17.35,6.43-7.04,2.45-17.15,5.31-24.29,7.04-3.06.82-2.86.41-5.21,1.02-.2-5-.2-3.57-.31-6.84-.2-7.45-.2-14.9-.31-22.35-.1-7.55,0-13.06-.1-20.62-.1-4.59-.2-11.94-.31-16.54,1.23-.2,2.45-.1,3.68-.1,2.45-.31,4.9-.1,7.25-.1.82,0,5.92-.1,7.55-.1,0,3.98,0,10.61.1,14.7,0,3.16-.1,6.43,0,9.7,0,3.16.2,4.39.1,7.66-.1,3.88-.1,7.76-.1,11.64,3.47-1.02,6.64-1.94,8.17-2.45,4.29-1.53,5.51-1.94,8.57-3.06,3.06-1.12,5.2-2.65,8.27-3.78,3.78-1.33,3.67-1.73,7.55-3.47.51,1.43,2.76,5.72,3.06,6.43.82,2.25,2.35,4.29,2.96,6.63.41,1.23,1.33,2.04,1.53,3.27Z"/>
  <g>
    <path class="cls-1" d="M209.97,68.89c1.13,1.85,2.88,3.29,3.8,5.24-1.23.72-2.36,1.64-3.7,2.26-1.64.82-3.29,1.85-4.83,2.98-1.54,1.13-3.39,1.65-4.83,2.78-1.85.92-3.9,1.23-5.75,1.95-2.47.92-4.93,1.23-7.5,1.54-1.85.41-3.6-.31-5.34-.41-1.03-.1-2.05,0-3.08-.1-2.16-.41-4.21-1.03-6.27-1.64-1.54-.51-2.98-1.23-4.52-1.65-1.03-.41-2.26-.51-3.29-1.13-1.44-.93-3.19-1.34-4.52-2.57-1.44-1.23-2.88-2.57-4.11-4.01-.82-1.03-1.75-2.06-2.77-2.78-1.23-.62-2.16-2.16-2.77-2.67,1.03-1.13,2.05-2.26,3.08-3.39.93-1.13,1.85-2.26,2.57-3.49.51-.82,1.34-1.34,1.85-2.06,1.44-1.64,2.98-3.08,4.42-4.73,2.26,1.95,4.42,3.91,6.68,5.86,1.03.82,1.75,2.05,2.98,2.77,2.16,1.34,4.62,2.16,7.09,2.67,1.34.1,2.67.62,4.01.82.93.2,1.95-.21,2.88-.31,1.44-.1,2.98-.21,4.32-.82,2.05-1.03,4.01-1.95,5.86-3.29,1.95-1.34,4.73-2.88,6.78-4.01,1.03,1.34,2.06,2.78,2.88,4.21,1.23,2.05,2.98,3.8,4.11,5.96Z"/>
    <path class="cls-1" d="M158.59,28.19s.31-2.26.41-3.29c.41-2.88.72-5.65,1.34-8.43.1-.72.1-1.34.2-2.06,0-1.54.51-2.98.72-4.52,1.13.2,2.26.2,3.39.31,2.57.31,5.03,1.03,7.6,1.44,1.13.21,2.16.21,3.19.31,1.34.21,2.57.41,3.9.62,4.83.41,9.56,1.03,14.39,1.54,3.08.31,6.06,1.03,9.04,1.23,1.23,0,2.36.51,3.6.51.51,0,1.13,0,1.75.1-.72,2.88-1.03,5.76-1.64,8.63-1.34,4.21-2.26,8.53-3.6,12.74-.51,1.64-1.03,3.39-1.34,5.24,0,.62-.31,1.13-.51,1.75-4.83-1.03-9.45-2.47-14.28-3.39-1.23-.31-2.57-.31-3.8-.72.31-1.03.72-2.05.93-3.19.1-1.23.72-2.36.93-3.6.1-.93-.62-1.75-1.54-1.85-4.62-.62-9.35-1.44-14.08-1.75-1.13.1-2.36,0-3.49-.31-2.26-.72-4.73-.92-7.09-1.34Z"/>
    <path class="cls-1" d="M183.26,8.77s.89-1.09,1.28-1.59c1.15-1.38,2.21-2.74,3.41-4.01.29-.35.49-.67.78-1.01.52-.8,1.22-1.41,1.83-2.15.4.41.88.72,1.32,1.09.97.86,1.76,1.91,2.7,2.82.4.42.83.7,1.23,1.03.49.47.94.91,1.43,1.39,1.88,1.53,3.66,3.14,5.51,4.73,1.19,1,2.19,2.19,3.37,3.11.52.34.82.91,1.33,1.25.21.14.47.31.7.53-1.27,1.3-2.38,2.71-3.61,4.03-1.98,1.82-3.83,3.81-5.82,5.63-.77.71-1.58,1.48-2.33,2.36-.21.32-.51.5-.81.77-1.68-1.85-3.13-3.86-4.84-5.66-.41-.5-.97-.86-1.35-1.41.48-.45,1-.87,1.46-1.4.46-.61,1.1-1.03,1.6-1.61.36-.45.33-1.07-.02-1.38-1.73-1.58-3.43-3.3-5.31-4.75-.51-.25-.99-.64-1.36-1.11-.7-.99-1.67-1.77-2.52-2.63Z"/>
    <path class="cls-1" d="M151.5,77.5s-1.49-.5-2.18-.71c-1.9-.65-3.74-1.22-5.54-2.01-.48-.16-.89-.24-1.37-.41-1.05-.2-1.95-.74-2.97-1.08.29-.75.43-1.53.65-2.29.54-1.73,1.35-3.33,1.97-5.04.29-.75.42-1.46.63-2.15.31-.89.61-1.71.93-2.6.91-3.27,1.95-6.44,2.93-9.69.61-2.08,1.49-4.04,2.02-6.06.16-.85.66-1.56.82-2.41.07-.35.15-.78.3-1.19,1.86.87,3.77,1.45,5.64,2.24,2.68,1.46,5.49,2.65,8.18,4.12,1.05.57,2.17,1.14,3.38,1.59.42.08.73.36,1.12.58-1.33,3.19-2.91,6.18-4.17,9.38-.37.81-.54,1.73-.98,2.52-.66-.34-1.3-.76-2.04-1.05-.82-.23-1.51-.8-2.32-1.1-.61-.19-1.27.2-1.46.82-1.02,3.1-2.2,6.24-3.02,9.45-.08.79-.31,1.62-.67,2.36-.78,1.46-1.24,3.13-1.83,4.7Z"/>
    <path class="cls-1" d="M173.69,61.01s.42-1.06.63-1.53c.53-1.35,1.07-2.64,1.49-3.99.13-.34.28-.61.41-.95.37-.68.51-1.42.8-2.14-.49-.15-.93-.39-1.4-.59-1.08-.41-2.21-.62-3.31-.98-.49-.15-.89-.37-1.32-.54-.57-.19-1.1-.37-1.67-.56-1.98-.85-3.98-1.58-5.99-2.38-1.28-.52-2.61-.84-3.83-1.38-.48-.26-1.05-.28-1.53-.54-.2-.11-.44-.24-.71-.33-.41,1.42-.98,2.75-1.42,4.15-.49,2.14-1.16,4.23-1.65,6.37-.19.83-.41,1.71-.73,2.59-.15.27-.15.56-.22.88,2.13.57,4.28.92,6.39,1.54.56.13,1.08.41,1.66.49.13-.52.21-1.06.4-1.6.26-.56.28-1.19.5-1.78.18-.43.66-.64,1.04-.49,1.95.71,4,1.35,5.91,2.22.42.29.92.5,1.44.61,1.05.16,2.07.6,3.09.92Z"/>
  </g>
</svg>