<svg width="51" height="50" viewBox="0 0 51 50" fill="none" xmlns="http://www.w3.org/2000/svg">
<path d="M30.4409 19.2188V27.1582C30.4409 27.3633 30.2847 27.5195 30.0796 27.5195H28.8101C28.6831 27.5195 28.5757 27.4512 28.5171 27.3731L24.8745 22.461V27.168C24.8745 27.3731 24.7183 27.5293 24.5132 27.5293H23.2437C23.0386 27.5293 22.8823 27.3731 22.8823 27.168V19.2285C22.8823 19.0235 23.0386 18.8672 23.2437 18.8672H24.5034C24.6109 18.8672 24.7378 18.9258 24.7964 19.0235L28.439 23.9356V19.2285C28.439 19.0235 28.5952 18.8672 28.8003 18.8672H30.0698C30.2749 18.8574 30.4409 19.0235 30.4409 19.209V19.2188ZM21.2905 18.8574H20.021C19.8159 18.8574 19.6597 19.0137 19.6597 19.2188V27.1582C19.6597 27.3633 19.8159 27.5195 20.021 27.5195H21.2905C21.4956 27.5195 21.6519 27.3633 21.6519 27.1582V19.2188C21.6519 19.0332 21.4956 18.8574 21.2905 18.8574ZM18.2241 25.5078H14.7476V19.2188C14.7476 19.0137 14.5913 18.8574 14.3862 18.8574H13.1167C12.9116 18.8574 12.7554 19.0137 12.7554 19.2188V27.1582C12.7554 27.2559 12.7847 27.334 12.853 27.4024C12.9214 27.461 12.9995 27.5 13.0972 27.5H18.1948C18.3999 27.5 18.5562 27.3438 18.5562 27.1387V25.8692C18.5562 25.6836 18.3999 25.5078 18.2144 25.5078H18.2241ZM37.1402 18.8574H32.0327C31.8472 18.8574 31.6714 19.0137 31.6714 19.2188V27.1582C31.6714 27.3438 31.8277 27.5195 32.0327 27.5195H37.1304C37.3355 27.5195 37.4917 27.3633 37.4917 27.1582V25.8789C37.4917 25.6738 37.3355 25.5176 37.1304 25.5176H33.6636V24.1895H37.1304C37.3355 24.1895 37.4917 24.0332 37.4917 23.8281V22.5488C37.4917 22.3438 37.3355 22.1875 37.1304 22.1875H33.6636V20.8496H37.1304C37.3355 20.8496 37.4917 20.6934 37.4917 20.4883V19.2188C37.482 19.0332 37.3257 18.8574 37.1304 18.8574H37.1402ZM50.0698 9.12111V40.9571C50.0601 45.9571 45.9585 50.0098 40.9487 50H9.11281C4.11281 49.9903 0.0600762 45.8789 0.0698418 40.8789V9.04299C0.0796075 4.04299 4.19094 -0.00974801 9.19094 1.76117e-05H41.0269C46.0269 0.00978324 50.0796 4.11135 50.0698 9.12111ZM43.1948 22.8028C43.1948 14.6582 35.021 8.02736 24.9917 8.02736C14.9624 8.02736 6.78859 14.6582 6.78859 22.8028C6.78859 30.0977 13.2632 36.2207 22.0132 37.3828C24.1421 37.8418 23.898 38.6231 23.4195 41.4942C23.3413 41.9531 23.0484 43.291 24.9917 42.4805C26.9351 41.6699 35.4702 36.3086 39.2984 31.9141C41.9351 29.0137 43.1948 26.0742 43.1948 22.8223V22.8028Z" fill="#00C300"/>
</svg>
