<svg width="51" height="50" viewBox="0 0 51 50" fill="none" xmlns="http://www.w3.org/2000/svg">
<g clip-path="url(#clip0_588_214)">
<path d="M22.2111 28.7625C22.2111 27.4812 22.8268 25.4437 27.608 25.4437C29.0736 25.4437 29.9768 25.55 31.1893 25.8218C30.8018 30.8406 28.3455 31.5031 25.958 31.5031C24.6518 31.5031 22.2111 30.8219 22.2111 28.7625Z" fill="black"/>
<path d="M9.02368 50H42.8362C44.9828 50 47.0415 49.1473 48.5593 47.6294C50.0772 46.1115 50.9299 44.0528 50.9299 41.9062V8.09375C50.9299 5.94715 50.0772 3.88848 48.5593 2.3706C47.0415 0.852732 44.9828 0 42.8362 0L9.02368 0C6.87709 0 4.81841 0.852732 3.30054 2.3706C1.78266 3.88848 0.929932 5.94715 0.929932 8.09375L0.929932 41.9062C0.929932 44.0528 1.78266 46.1115 3.30054 47.6294C4.81841 49.1473 6.87709 50 9.02368 50ZM19.2612 18.4688C21.0331 15.9375 23.3706 14.95 26.6049 14.95C28.8862 14.95 30.8268 15.7188 32.2143 17.1719C33.5987 18.6281 34.3893 20.7094 34.5706 23.3687C35.3372 23.6896 36.0435 24.0677 36.6893 24.5031C39.2893 26.25 40.7206 28.8625 40.7206 31.8563C40.7206 38.2219 35.5018 43.75 26.0581 43.75C17.9487 43.75 9.52368 39.0312 9.52368 24.9875C9.52368 11.0188 17.6831 6.25 26.0331 6.25C29.8893 6.25 38.9362 6.81875 42.3362 18.0531L39.1487 18.8781C36.5174 10.8781 31.0018 9.60312 25.9487 9.60312C17.5893 9.60312 12.8643 14.6906 12.8643 25.5188C12.8643 35.2281 18.1456 40.3844 26.0581 40.3844C32.5674 40.3844 37.4206 37.0031 37.4206 32.05C37.4206 28.6781 34.5893 27.0656 34.4424 27.0656C33.8893 29.9563 32.4081 34.8219 25.9018 34.8219C22.1112 34.8219 18.8393 32.2031 18.8393 28.7719C18.8393 23.8719 23.4893 22.0969 27.1612 22.0969C28.5362 22.0969 30.1924 22.1906 31.0581 22.3656C31.0581 20.8719 29.7956 18.3156 26.6018 18.3156C23.7549 18.3156 22.9768 19.2156 22.0706 20.2656L21.9956 20.35C21.3643 19.9281 19.2612 18.4688 19.2612 18.4688Z" fill="black"/>
</g>
<defs>
<clipPath id="clip0_588_214">
<rect width="50" height="50" fill="white" transform="translate(0.929932)"/>
</clipPath>
</defs>
</svg>
