<svg width="51" height="50" viewBox="0 0 51 50" fill="none" xmlns="http://www.w3.org/2000/svg">
<g clip-path="url(#clip0_982_10)">
<path d="M35.7103 18.0036C38.9306 20.3045 42.8758 21.6583 47.1367 21.6583V13.4634C46.3302 13.4636 45.526 13.3795 44.737 13.2124V19.6629C40.4765 19.6629 36.5319 18.3093 33.3108 16.0086V32.7321C33.3108 41.0981 26.5253 47.8795 18.1556 47.8795C15.0327 47.8795 12.13 46.9359 9.71875 45.3174C12.4708 48.13 16.3088 49.8747 20.5546 49.8747C28.925 49.8747 35.7106 43.0933 35.7106 34.7269V18.0036H35.7103ZM38.6706 9.73603C37.0248 7.93896 35.9441 5.61655 35.7103 3.04896V1.995H33.4363C34.0088 5.25827 35.9613 8.0462 38.6706 9.73603ZM15.0125 38.8978C14.093 37.6928 13.596 36.2186 13.5982 34.7029C13.5982 30.8767 16.7019 27.7743 20.531 27.7743C21.2445 27.7739 21.9538 27.8834 22.6339 28.099V19.7209C21.8391 19.6121 21.037 19.5657 20.2353 19.5828V26.1038C19.5548 25.8881 18.8452 25.7787 18.1313 25.7793C14.3024 25.7793 11.1989 28.8814 11.1989 32.7081C11.1989 35.414 12.7501 37.7565 15.0125 38.8978Z" fill="#FF004F"/>
<path d="M33.311 16.0084C36.5322 18.3091 40.4766 19.6628 44.7372 19.6628V13.2122C42.359 12.7059 40.2536 11.4638 38.6707 9.73603C35.9612 8.04603 34.009 5.2581 33.4366 1.995H27.4636V34.7265C27.45 38.5424 24.3517 41.6321 20.5309 41.6321C18.2795 41.6321 16.2791 40.5595 15.0124 38.8976C12.7503 37.7565 11.199 35.4138 11.199 32.7083C11.199 28.8819 14.3024 25.7795 18.1314 25.7795C18.865 25.7795 19.5721 25.8936 20.2353 26.104V19.5829C12.0126 19.7528 5.39966 26.4679 5.39966 34.7267C5.39966 38.8495 7.04638 42.5869 9.71914 45.3178C12.1303 46.9359 15.0329 47.8798 18.156 47.8798C26.5259 47.8798 33.3112 41.0979 33.3112 32.7321L33.311 16.0084Z" fill="black"/>
<path d="M44.7371 13.2121V11.4683C42.5924 11.4715 40.4901 10.8712 38.6705 9.73603C40.2812 11.4985 42.4021 12.7138 44.7371 13.2124M33.4362 1.99483C33.3816 1.68304 33.3398 1.36916 33.3107 1.05397V0H25.0634V32.7319C25.0503 36.5474 21.9521 39.6371 18.131 39.6371C17.0478 39.6387 15.9794 39.3855 15.0121 38.8979C16.2788 40.5595 18.2791 41.6319 20.5305 41.6319C24.3512 41.6319 27.4498 38.5426 27.4633 34.7267V1.995L33.4362 1.99483ZM20.2355 19.5828V17.726C19.5464 17.6318 18.8516 17.5847 18.156 17.585C9.78534 17.585 3 24.3667 3 32.7319C3 37.9766 5.66672 42.5986 9.71914 45.3174C7.04638 42.5867 5.39966 38.8491 5.39966 34.7266C5.39966 26.4679 12.0124 19.7526 20.2355 19.5828Z" fill="#00F2EA"/>
</g>
<defs>
<clipPath id="clip0_982_10">
<rect width="50.1367" height="49.8746" fill="white"/>
</clipPath>
</defs>
</svg>
