<svg width="169" height="172" viewBox="0 0 169 172" fill="none" xmlns="http://www.w3.org/2000/svg">
<g clip-path="url(#clip0_477_2)">
<path d="M67.8 48.01C65.38 47.91 64.7 47.91 61.69 47.91C59.75 47.91 58.59 47.81 56.65 47.72C54.23 47.82 51.8 47.91 49.28 48.01C47.53 48.2 46.27 47.91 44.53 47.91C42.79 47.91 41.33 47.62 39.59 47.72C38.04 47.72 37.17 47.82 36 47.82C35.9 52.96 35.71 57.81 35.51 63.33C35.41 66.72 35.41 66.43 35.22 71.57C30.95 71.18 25.81 71.57 18.25 71.28C18.35 66.63 18.44 65.17 18.54 59.45C18.64 55.67 18.73 53.34 18.93 49.56V35.11C18.83 31.72 19.32 23.38 19.42 19.98C19.42 16.59 19.81 13.77 19.81 10.38C19.81 6.02 19.81 4.37 19.91 0.1C21.36 0.1 22.82 0.2 24.37 1.30385e-08C25.15 -0.1 25.82 0.19 26.6 0.19C28.93 0.19 31.25 0 33.48 0.29C34.74 0.39 35.9 0.19 37.07 0.39C36.88 5.33 36.78 7.66 36.68 12.61C36.68 17.65 36.49 24.44 36.39 30.74H40.56C44.73 30.64 48.03 30.64 52.1 30.64C56.17 30.64 59.47 30.74 63.54 30.83C65.28 30.93 65.09 30.83 67.81 31.02C67.62 35.29 67.91 40.33 67.81 47.99L67.8 48.01Z" fill="#EA5755"/>
<path d="M168.34 50.44C164.75 52.19 162.04 53.25 158.06 55.09C151.47 58.1 148.27 58.77 141.58 61.2C134.89 63.53 125.29 66.24 118.5 67.89C115.59 68.67 115.78 68.28 113.56 68.86C113.37 64.11 113.37 65.47 113.27 62.36C113.08 55.28 113.08 48.2 112.98 41.13C112.88 33.96 112.98 28.72 112.88 21.54C112.78 17.18 112.69 10.2 112.59 5.83C113.75 5.64 114.92 5.73 116.08 5.73C118.41 5.44 120.73 5.63 122.96 5.63C123.74 5.63 128.58 5.53 130.13 5.53C130.13 9.31 130.13 15.61 130.23 19.49C130.23 22.5 130.13 25.6 130.23 28.7C130.23 31.71 130.42 32.87 130.33 35.97C130.23 39.65 130.23 43.34 130.23 47.02C133.53 46.05 136.53 45.18 137.99 44.69C142.06 43.24 143.23 42.85 146.14 41.78C149.05 40.71 151.08 39.26 153.99 38.19C157.58 36.93 157.48 36.54 161.16 34.89C161.65 36.25 163.78 40.32 164.07 41C164.85 43.13 166.3 45.07 166.88 47.3C167.27 48.46 168.14 49.24 168.33 50.4L168.34 50.44Z" fill="#F6D75C"/>
<path d="M66.5399 155.73C67.6099 157.47 69.2599 158.83 70.1299 160.67C68.9699 161.35 67.8999 162.22 66.6399 162.8C65.0899 163.58 63.5399 164.55 62.0799 165.61C60.6299 166.68 58.8799 167.16 57.5199 168.23C55.7799 169.1 53.8399 169.39 52.0899 170.07C49.7599 170.94 47.4399 171.23 45.0099 171.52C43.2699 171.91 41.6199 171.23 39.9699 171.13C38.9999 171.03 38.0299 171.13 37.0599 171.03C35.0199 170.64 33.0799 170.06 31.1399 169.48C29.6899 168.99 28.3299 168.32 26.8699 167.93C25.8999 167.54 24.7399 167.44 23.7699 166.86C22.4099 165.99 20.7599 165.6 19.4999 164.44C18.1399 163.28 16.7799 162.02 15.6199 160.66C14.8399 159.69 13.9699 158.72 12.9999 158.04C11.8399 157.46 10.9599 156 10.3799 155.52C11.3499 154.45 12.3199 153.39 13.2899 152.32C14.1599 151.25 15.0399 150.19 15.7099 149.02C16.1899 148.24 16.9699 147.76 17.4499 147.08C18.8099 145.53 20.2599 144.17 21.6199 142.62C23.7499 144.46 25.7899 146.3 27.9199 148.15C28.8899 148.93 29.5699 150.09 30.7299 150.77C32.7699 152.03 35.0899 152.81 37.4199 153.29C38.6799 153.39 39.9399 153.87 41.1999 154.07C42.0699 154.26 43.0399 153.88 43.9199 153.78C45.2799 153.68 46.7299 153.59 47.9899 153C49.9299 152.03 51.7699 151.16 53.5199 149.9C55.3599 148.64 57.9799 147.19 59.9199 146.12C60.8899 147.38 61.8599 148.74 62.6399 150.1C63.7999 152.04 65.4499 153.69 66.5199 155.72L66.5399 155.73Z" fill="#4AAAE0"/>
<path d="M18.06 117.33C18.06 117.33 18.35 115.2 18.45 114.23C18.84 111.52 19.13 108.9 19.71 106.28C19.81 105.6 19.81 105.02 19.9 104.34C19.9 102.89 20.39 101.53 20.58 100.07C21.65 100.26 22.71 100.26 23.78 100.36C26.2 100.65 28.53 101.33 30.95 101.72C32.02 101.91 32.99 101.91 33.96 102.01C35.22 102.2 36.38 102.4 37.64 102.59C42.2 102.98 46.66 103.56 51.21 104.04C54.12 104.33 56.93 105.01 59.74 105.2C60.9 105.2 61.97 105.69 63.13 105.69C63.61 105.69 64.2 105.69 64.78 105.79C64.1 108.51 63.81 111.22 63.23 113.93C61.97 117.91 61.1 121.98 59.84 125.95C59.35 127.5 58.87 129.15 58.58 130.89C58.58 131.47 58.29 131.96 58.09 132.54C53.53 131.57 49.17 130.21 44.61 129.34C43.45 129.05 42.19 129.05 41.02 128.66C41.31 127.69 41.7 126.72 41.89 125.65C41.99 124.49 42.57 123.42 42.76 122.26C42.86 121.39 42.18 120.61 41.31 120.52C36.95 119.94 32.49 119.16 28.03 118.87C26.96 118.97 25.8 118.87 24.73 118.58C22.6 117.9 20.27 117.71 18.04 117.32L18.06 117.33Z" fill="#4AAAE0"/>
<path d="M168.34 147.39C164.75 149.14 162.04 150.2 158.06 152.04C151.47 155.05 148.27 155.73 141.58 158.15C134.89 160.48 125.29 163.19 118.5 164.84C115.59 165.62 115.78 165.23 113.56 165.81C113.37 161.06 113.37 162.42 113.27 159.31C113.08 152.23 113.08 145.15 112.98 138.08C112.88 130.91 112.98 125.67 112.88 118.49C112.78 114.13 112.69 107.15 112.59 102.78C113.75 102.59 114.92 102.68 116.08 102.68C118.41 102.39 120.73 102.58 122.96 102.58C123.74 102.58 128.58 102.48 130.13 102.48C130.13 106.26 130.13 112.56 130.23 116.44C130.23 119.45 130.13 122.55 130.23 125.65C130.23 128.66 130.42 129.82 130.33 132.92C130.23 136.6 130.23 140.29 130.23 143.97C133.53 143 136.53 142.13 137.99 141.64C142.06 140.19 143.23 139.8 146.14 138.73C149.05 137.66 151.08 136.21 153.99 135.14C157.58 133.88 157.48 133.49 161.16 131.84C161.65 133.2 163.78 137.27 164.07 137.95C164.85 140.08 166.3 142.02 166.88 144.25C167.27 145.41 168.14 146.19 168.33 147.35L168.34 147.39Z" fill="#F6D75C"/>
<path d="M41.3401 99C41.3401 99 42.1801 97.97 42.5501 97.5C43.6301 96.2 44.6401 94.92 45.7701 93.72C46.0401 93.39 46.2401 93.09 46.5101 92.77C47.0001 92.02 47.6601 91.44 48.2401 90.74C48.6201 91.13 49.0701 91.42 49.4801 91.76C50.4001 92.57 51.1401 93.56 52.0301 94.42C52.4101 94.81 52.8201 95.08 53.1901 95.39C53.6501 95.84 54.0701 96.25 54.5401 96.7C56.3201 98.14 57.9901 99.66 59.7301 101.16C60.8501 102.1 61.8001 103.22 62.9101 104.09C63.4001 104.41 63.6801 104.95 64.1701 105.27C64.3701 105.4 64.6201 105.56 64.8301 105.77C63.6301 106.99 62.5901 108.32 61.4301 109.57C59.5601 111.29 57.8201 113.17 55.9401 114.88C55.2101 115.55 54.4501 116.28 53.7401 117.1C53.5401 117.4 53.2601 117.57 52.9801 117.82C51.4001 116.07 50.0301 114.18 48.4201 112.48C48.0301 112.01 47.5001 111.67 47.1501 111.15C47.6001 110.73 48.0901 110.33 48.5301 109.83C48.9601 109.25 49.5701 108.86 50.0401 108.31C50.3801 107.88 50.3501 107.3 50.0201 107.01C48.3901 105.52 46.7801 103.9 45.0101 102.53C44.5301 102.29 44.0801 101.92 43.7301 101.48C43.0701 100.55 42.1601 99.81 41.3501 99H41.3401Z" fill="#4AAAE0"/>
<path d="M11.38 163.85C11.38 163.85 9.97 163.37 9.33 163.18C7.54 162.56 5.8 162.03 4.1 161.29C3.65 161.14 3.26 161.06 2.81 160.91C1.82 160.72 0.97 160.21 0 159.89C0.27 159.18 0.41 158.45 0.62 157.73C1.13 156.1 1.9 154.59 2.48 152.97C2.75 152.26 2.88 151.6 3.07 150.94C3.37 150.1 3.65 149.32 3.95 148.48C4.81 145.4 5.79 142.41 6.71 139.34C7.29 137.38 8.12 135.53 8.61 133.62C8.76 132.82 9.23 132.15 9.38 131.35C9.44 131.02 9.52 130.62 9.66 130.23C11.41 131.05 13.22 131.6 14.98 132.35C17.51 133.73 20.16 134.85 22.69 136.23C23.68 136.76 24.73 137.31 25.88 137.73C26.27 137.81 26.57 138.07 26.93 138.28C25.68 141.29 24.19 144.11 23 147.13C22.65 147.89 22.49 148.76 22.07 149.51C21.45 149.19 20.84 148.79 20.14 148.52C19.36 148.3 18.72 147.77 17.95 147.48C17.37 147.3 16.76 147.67 16.58 148.26C15.62 151.18 14.51 154.15 13.73 157.18C13.66 157.93 13.44 158.71 13.1 159.41C12.36 160.79 11.93 162.36 11.37 163.85H11.38Z" fill="#4AAAE0"/>
<path d="M32.31 148.29C32.31 148.29 32.71 147.29 32.9 146.84C33.4 145.56 33.91 144.35 34.31 143.08C34.43 142.76 34.57 142.51 34.7 142.19C35.05 141.55 35.18 140.85 35.46 140.17C35 140.03 34.58 139.8 34.14 139.62C33.12 139.23 32.05 139.04 31.01 138.69C30.55 138.55 30.17 138.34 29.77 138.18C29.23 138 28.73 137.84 28.19 137.65C26.32 136.85 24.44 136.16 22.54 135.41C21.33 134.92 20.07 134.62 18.93 134.11C18.48 133.86 17.94 133.85 17.49 133.6C17.3 133.5 17.07 133.37 16.82 133.29C16.44 134.63 15.9 135.88 15.48 137.2C15.02 139.22 14.39 141.19 13.93 143.21C13.75 144 13.54 144.82 13.24 145.65C13.1 145.91 13.1 146.18 13.04 146.48C15.05 147.02 17.08 147.35 19.07 147.94C19.59 148.06 20.09 148.33 20.63 148.4C20.75 147.91 20.83 147.4 21.01 146.89C21.25 146.36 21.28 145.77 21.48 145.21C21.65 144.81 22.1 144.61 22.47 144.75C24.31 145.42 26.24 146.03 28.05 146.85C28.44 147.12 28.92 147.32 29.41 147.42C30.41 147.57 31.36 147.98 32.32 148.29H32.31Z" fill="#4AAAE0"/>
</g>
<defs>
<clipPath id="clip0_477_2">
<rect width="168.34" height="171.65" fill="white"/>
</clipPath>
</defs>
</svg>
