<svg width="50" height="50" viewBox="0 0 50 50" fill="none" xmlns="http://www.w3.org/2000/svg">
<g clip-path="url(#clip0_588_183)">
<path d="M10.7984 0.035609C10.1781 0.0837993 9.57133 0.180287 8.98188 0.321316L9.09822 0.807592C8.52174 0.945518 7.96255 1.12796 7.42448 1.35109L7.23295 0.889225C6.66287 1.12563 6.1155 1.40573 5.595 1.72536L5.85665 2.15144C5.35462 2.45973 4.87865 2.80647 4.43284 3.18758L4.10794 2.80753C3.64133 3.20642 3.20643 3.64133 2.80753 4.10794L3.18758 4.43284C2.80647 4.87864 2.45973 5.35462 2.15144 5.85665L1.72536 5.595C1.40573 6.1155 1.12563 6.66287 0.889226 7.23295L1.35109 7.42448C1.12796 7.96255 0.945519 8.52174 0.807592 9.09822L0.321316 8.98188C0.180287 9.57133 0.0837996 10.1781 0.0356093 10.7984L0.534107 10.8371C0.511515 11.1279 0.5 11.4219 0.5 11.7188V12.6674H0V14.5647H0.5V16.4621H0V18.3594H0.5V20.2567H0V22.154H0.5V24.0513H0V25.9487H0.5V27.846H0V29.7433H0.5V31.6406H0V33.5379H0.5V35.4353H0V37.3326H0.5V38.2812C0.5 38.578 0.511514 38.8721 0.534107 39.1629L0.0356091 39.2016C0.0837994 39.8219 0.180287 40.4287 0.321316 41.0181L0.807592 40.9018C0.945518 41.4783 1.12796 42.0374 1.35109 42.5755L0.889225 42.767C1.12563 43.3371 1.40573 43.8845 1.72536 44.405L2.15144 44.1433C2.45973 44.6454 2.80647 45.1214 3.18758 45.5672L2.80753 45.8921C3.20642 46.3587 3.64133 46.7936 4.10794 47.1925L4.43284 46.8124C4.87864 47.1935 5.35462 47.5403 5.85665 47.8486L5.595 48.2746C6.1155 48.5943 6.66287 48.8744 7.23295 49.1108L7.42448 48.6489C7.96255 48.872 8.52173 49.0545 9.09822 49.1924L8.98188 49.6787C9.57133 49.8197 10.1781 49.9162 10.7984 49.9644L10.8371 49.4659C11.1279 49.4885 11.4219 49.5 11.7188 49.5H12.6674V50H14.5647V49.5H16.4621V50H18.3594V49.5H20.2567V50H22.154V49.5H24.0513V50H25.9487V49.5H27.846V50H29.7433V49.5H31.6406V50H33.5379V49.5H35.4353V50H37.3326V49.5H38.2812C38.578 49.5 38.8721 49.4885 39.1629 49.4659L39.2016 49.9644C39.8219 49.9162 40.4287 49.8197 41.0181 49.6787L40.9018 49.1924C41.4783 49.0545 42.0374 48.872 42.5755 48.6489L42.767 49.1108C43.3371 48.8744 43.8845 48.5943 44.405 48.2746L44.1433 47.8486C44.6454 47.5403 45.1214 47.1935 45.5672 46.8124L45.8921 47.1925C46.3587 46.7936 46.7936 46.3587 47.1925 45.8921L46.8124 45.5672C47.1935 45.1214 47.5403 44.6454 47.8486 44.1433L48.2746 44.405C48.5943 43.8845 48.8744 43.3371 49.1108 42.767L48.6489 42.5755C48.872 42.0374 49.0545 41.4783 49.1924 40.9018L49.6787 41.0181C49.8197 40.4287 49.9162 39.8219 49.9644 39.2016L49.4659 39.1629C49.4885 38.8721 49.5 38.578 49.5 38.2812V37.3326H50V35.4353H49.5V33.5379H50V31.6406H49.5V29.7433H50V27.846H49.5V25.9487H50V24.0513H49.5V22.154H50V20.2567H49.5V18.3594H50V16.4621H49.5V14.5647H50V12.6674H49.5V11.7188C49.5 11.4219 49.4885 11.1279 49.4659 10.8371L49.9644 10.7984C49.9162 10.1781 49.8197 9.57133 49.6787 8.98188L49.1924 9.09822C49.0545 8.52174 48.872 7.96255 48.6489 7.42448L49.1108 7.23295C48.8744 6.66287 48.5943 6.1155 48.2746 5.595L47.8486 5.85665C47.5403 5.35462 47.1935 4.87865 46.8124 4.43284L47.1925 4.10794C46.7936 3.64133 46.3587 3.20642 45.8921 2.80753L45.5672 3.18758C45.1214 2.80647 44.6454 2.45973 44.1433 2.15144L44.405 1.72536C43.8845 1.40573 43.3371 1.12563 42.767 0.889224L42.5755 1.35109C42.0374 1.12796 41.4783 0.945517 40.9018 0.807591L41.0181 0.321315C40.4287 0.180286 39.8219 0.0837989 39.2016 0.0356089L39.1629 0.534107C38.8721 0.511514 38.578 0.5 38.2812 0.5H37.3326V0H35.4353V0.5H33.5379V0H31.6406V0.5H29.7433V0H27.846V0.5H25.9487V0H24.0513V0.5H22.154V0H20.2567V0.5H18.3594V0H16.4621V0.5H14.5647V0H12.6674V0.5H11.7188C11.4219 0.5 11.1279 0.511514 10.8371 0.534107L10.7984 0.035609Z" stroke="black" stroke-dasharray="2 2"/>
</g>
<defs>
<clipPath id="clip0_588_183">
<rect width="50" height="50" fill="white"/>
</clipPath>
</defs>
</svg>
