<svg width="51" height="50" viewBox="0 0 51 50" fill="none" xmlns="http://www.w3.org/2000/svg">
<g clip-path="url(#clip0_398_108)">
<path d="M25.9299 0.61875C12.119 0.61875 0.929932 11.8172 0.929932 25.6187C0.929932 36.6703 8.09243 46.0375 18.019 49.3422C19.2737 49.5781 19.7268 48.8047 19.7268 48.1359C19.7268 47.5422 19.7127 45.9719 19.7034 43.8875C12.7456 45.3937 11.2799 40.5266 11.2799 40.5266C10.1409 37.6453 8.49712 36.8719 8.49712 36.8719C6.23462 35.3266 8.67681 35.3594 8.67681 35.3594C11.1831 35.5297 12.5018 37.9297 12.5018 37.9297C14.7315 41.7547 18.3518 40.6484 19.7846 40.0047C20.0034 38.3938 20.6549 37.2859 21.3643 36.6687C15.8143 36.0422 9.97837 33.8937 9.97837 24.3141C9.97837 21.5781 10.9471 19.35 12.5487 17.6C12.2721 16.9734 11.4252 14.4266 12.769 10.9828C12.769 10.9828 14.8612 10.3156 19.644 13.5469C21.6813 12.9928 23.7826 12.7086 25.894 12.7016C28.019 12.7156 30.1424 12.9937 32.144 13.5469C36.8987 10.3156 38.9893 10.9828 38.9893 10.9828C40.3315 14.4266 39.4846 16.9719 39.2409 17.6C40.8268 19.35 41.7956 21.5797 41.7956 24.3141C41.7956 33.9156 35.9518 36.0328 30.3956 36.6437C31.2643 37.3922 32.0784 38.9312 32.0784 41.2672C32.0784 44.6109 32.0471 47.3047 32.0471 48.1187C32.0471 48.7687 32.4846 49.55 33.7721 49.2984C43.7721 46.0281 50.9268 36.6531 50.9268 25.6172C50.9268 11.8156 39.7377 0.617188 25.9268 0.617188L25.9299 0.61875Z" fill="black"/>
</g>
<defs>
<clipPath id="clip0_398_108">
<rect width="50" height="50" fill="white" transform="translate(0.929932)"/>
</clipPath>
</defs>
</svg>
