<svg width="30" height="31" viewBox="0 0 30 31" fill="none" xmlns="http://www.w3.org/2000/svg">
<path d="M27.2569 13.3563H26.25V13.3044H15V18.3044H22.0644C21.0338 21.2151 18.2644 23.3044 15 23.3044C10.8581 23.3044 7.5 19.9463 7.5 15.8044C7.5 11.6626 10.8581 8.30444 15 8.30444C16.9119 8.30444 18.6513 9.02569 19.9756 10.2038L23.5112 6.66819C21.2787 4.58757 18.2925 3.30444 15 3.30444C8.09688 3.30444 2.5 8.90132 2.5 15.8044C2.5 22.7076 8.09688 28.3044 15 28.3044C21.9031 28.3044 27.5 22.7076 27.5 15.8044C27.5 14.9663 27.4137 14.1482 27.2569 13.3563Z" fill="#FFC107"/>
<path d="M3.94122 9.98632L8.0481 12.9982C9.15935 10.2469 11.8506 8.30444 15 8.30444C16.9118 8.30444 18.6512 9.02569 19.9756 10.2038L23.5112 6.66819C21.2787 4.58757 18.2925 3.30444 15 3.30444C10.1987 3.30444 6.03497 6.01507 3.94122 9.98632Z" fill="#FF3D00"/>
<path d="M15 28.3044C18.2288 28.3044 21.1625 27.0688 23.3806 25.0594L19.5119 21.7856C18.2147 22.7721 16.6297 23.3057 15 23.3044C11.7488 23.3044 8.98814 21.2313 7.94814 18.3381L3.87189 21.4788C5.94064 25.5269 10.1419 28.3044 15 28.3044Z" fill="#4CAF50"/>
<path d="M27.2569 13.3563H26.25V13.3044H15V18.3044H22.0644C21.5714 19.6897 20.6833 20.9002 19.51 21.7863L19.5119 21.7851L23.3806 25.0588C23.1069 25.3076 27.5 22.0544 27.5 15.8044C27.5 14.9663 27.4137 14.1482 27.2569 13.3563Z" fill="#1976D2"/>
</svg>
