<svg width="326" height="61" viewBox="0 0 326 61" fill="none" xmlns="http://www.w3.org/2000/svg">
<rect x="1" y="1.80444" width="324" height="58" rx="7" stroke="#38B6FF" stroke-width="2"/>
<path d="M133.153 30.8442C133.044 30.4995 132.896 30.1908 132.71 29.9181C132.528 29.6416 132.311 29.4067 132.057 29.2135C131.803 29.0166 131.513 28.8669 131.188 28.7647C130.866 28.6624 130.511 28.6113 130.125 28.6113C129.47 28.6113 128.879 28.7798 128.352 29.1169C127.826 29.4541 127.409 29.9484 127.102 30.5999C126.799 31.2476 126.648 32.0412 126.648 32.9806C126.648 33.9238 126.801 34.7211 127.108 35.3726C127.415 36.0241 127.835 36.5185 128.369 36.8556C128.903 37.1927 129.511 37.3613 130.193 37.3613C130.826 37.3613 131.377 37.2325 131.847 36.9749C132.32 36.7173 132.686 36.3537 132.943 35.884C133.205 35.4105 133.335 34.8537 133.335 34.2135L133.79 34.2988H130.46V32.8499H135.034V34.1738C135.034 35.151 134.826 35.9995 134.409 36.7192C133.996 37.4351 133.424 37.9882 132.693 38.3783C131.966 38.7685 131.133 38.9635 130.193 38.9635C129.14 38.9635 128.216 38.7211 127.42 38.2363C126.629 37.7514 126.011 37.0639 125.568 36.1738C125.125 35.2798 124.903 34.2192 124.903 32.9919C124.903 32.0639 125.032 31.2306 125.29 30.4919C125.547 29.7533 125.909 29.1264 126.375 28.6113C126.845 28.0923 127.396 27.6965 128.028 27.4238C128.665 27.1472 129.36 27.009 130.114 27.009C130.742 27.009 131.328 27.1018 131.869 27.2874C132.415 27.473 132.9 27.7363 133.324 28.0772C133.752 28.4181 134.106 28.8234 134.386 29.2931C134.667 29.759 134.856 30.276 134.955 30.8442H133.153ZM140.803 38.9806C139.984 38.9806 139.27 38.7931 138.661 38.4181C138.051 38.0431 137.577 37.5185 137.24 36.8442C136.903 36.17 136.734 35.3821 136.734 34.4806C136.734 33.5753 136.903 32.7836 137.24 32.1056C137.577 31.4275 138.051 30.901 138.661 30.526C139.27 30.151 139.984 29.9635 140.803 29.9635C141.621 29.9635 142.335 30.151 142.945 30.526C143.554 30.901 144.028 31.4275 144.365 32.1056C144.702 32.7836 144.871 33.5753 144.871 34.4806C144.871 35.3821 144.702 36.17 144.365 36.8442C144.028 37.5185 143.554 38.0431 142.945 38.4181C142.335 38.7931 141.621 38.9806 140.803 38.9806ZM140.808 37.5544C141.339 37.5544 141.778 37.4143 142.126 37.134C142.475 36.8537 142.732 36.4806 142.899 36.0147C143.07 35.5488 143.155 35.0355 143.155 34.4749C143.155 33.9181 143.07 33.4067 142.899 32.9408C142.732 32.4711 142.475 32.0942 142.126 31.8101C141.778 31.526 141.339 31.384 140.808 31.384C140.274 31.384 139.831 31.526 139.479 31.8101C139.13 32.0942 138.871 32.4711 138.7 32.9408C138.534 33.4067 138.45 33.9181 138.45 34.4749C138.45 35.0355 138.534 35.5488 138.7 36.0147C138.871 36.4806 139.13 36.8537 139.479 37.134C139.831 37.4143 140.274 37.5544 140.808 37.5544ZM150.443 38.9806C149.625 38.9806 148.911 38.7931 148.301 38.4181C147.691 38.0431 147.218 37.5185 146.881 36.8442C146.544 36.17 146.375 35.3821 146.375 34.4806C146.375 33.5753 146.544 32.7836 146.881 32.1056C147.218 31.4275 147.691 30.901 148.301 30.526C148.911 30.151 149.625 29.9635 150.443 29.9635C151.261 29.9635 151.975 30.151 152.585 30.526C153.195 30.901 153.669 31.4275 154.006 32.1056C154.343 32.7836 154.511 33.5753 154.511 34.4806C154.511 35.3821 154.343 36.17 154.006 36.8442C153.669 37.5185 153.195 38.0431 152.585 38.4181C151.975 38.7931 151.261 38.9806 150.443 38.9806ZM150.449 37.5544C150.979 37.5544 151.419 37.4143 151.767 37.134C152.116 36.8537 152.373 36.4806 152.54 36.0147C152.71 35.5488 152.795 35.0355 152.795 34.4749C152.795 33.9181 152.71 33.4067 152.54 32.9408C152.373 32.4711 152.116 32.0942 151.767 31.8101C151.419 31.526 150.979 31.384 150.449 31.384C149.915 31.384 149.472 31.526 149.119 31.8101C148.771 32.0942 148.511 32.4711 148.341 32.9408C148.174 33.4067 148.091 33.9181 148.091 34.4749C148.091 35.0355 148.174 35.5488 148.341 36.0147C148.511 36.4806 148.771 36.8537 149.119 37.134C149.472 37.4143 149.915 37.5544 150.449 37.5544ZM160.067 42.259C159.374 42.259 158.777 42.1681 158.277 41.9863C157.781 41.8044 157.375 41.5639 157.061 41.2647C156.747 40.9654 156.512 40.6378 156.357 40.2817L157.817 39.6794C157.919 39.8461 158.055 40.0222 158.226 40.2079C158.4 40.3972 158.635 40.5582 158.93 40.6908C159.23 40.8234 159.614 40.8897 160.084 40.8897C160.728 40.8897 161.26 40.7325 161.68 40.4181C162.101 40.1075 162.311 39.6113 162.311 38.9294V37.2135H162.203C162.101 37.3991 161.953 37.6056 161.76 37.8329C161.571 38.0601 161.309 38.2571 160.976 38.4238C160.643 38.5904 160.209 38.6738 159.675 38.6738C158.985 38.6738 158.364 38.5128 157.811 38.1908C157.262 37.865 156.826 37.3859 156.504 36.7533C156.186 36.1169 156.027 35.3347 156.027 34.4067C156.027 33.4787 156.184 32.6832 156.499 32.0204C156.817 31.3575 157.252 30.8499 157.805 30.4976C158.358 30.1416 158.985 29.9635 159.686 29.9635C160.228 29.9635 160.665 30.0544 160.999 30.2363C161.332 30.4143 161.591 30.6226 161.777 30.8613C161.966 31.0999 162.112 31.3101 162.214 31.4919H162.339V30.0772H164.004V38.9976C164.004 39.7476 163.83 40.3632 163.482 40.8442C163.133 41.3253 162.661 41.6813 162.067 41.9124C161.476 42.1435 160.809 42.259 160.067 42.259ZM160.05 37.2647C160.538 37.2647 160.951 37.151 161.288 36.9238C161.629 36.6927 161.887 36.3632 162.061 35.9351C162.239 35.5033 162.328 34.9863 162.328 34.384C162.328 33.7969 162.241 33.2798 162.067 32.8329C161.893 32.3859 161.637 32.0374 161.3 31.7874C160.963 31.5336 160.546 31.4067 160.05 31.4067C159.538 31.4067 159.112 31.5393 158.771 31.8044C158.43 32.0658 158.173 32.4219 157.999 32.8726C157.828 33.3234 157.743 33.8272 157.743 34.384C157.743 34.956 157.83 35.4579 158.004 35.8897C158.179 36.3215 158.436 36.6586 158.777 36.901C159.122 37.1435 159.546 37.2647 160.05 37.2647ZM167.982 27.1681V38.8044H166.283V27.1681H167.982ZM174.028 38.9806C173.169 38.9806 172.428 38.7969 171.807 38.4294C171.189 38.0582 170.712 37.5374 170.375 36.8669C170.042 36.1927 169.875 35.4029 169.875 34.4976C169.875 33.6037 170.042 32.8158 170.375 32.134C170.712 31.4522 171.182 30.92 171.784 30.5374C172.39 30.1548 173.098 29.9635 173.909 29.9635C174.402 29.9635 174.879 30.045 175.341 30.2079C175.803 30.3707 176.218 30.6264 176.585 30.9749C176.953 31.3234 177.242 31.776 177.455 32.3329C177.667 32.8859 177.773 33.5582 177.773 34.3499V34.9522H170.835V33.6794H176.108C176.108 33.2325 176.017 32.8366 175.835 32.4919C175.653 32.1435 175.398 31.8688 175.068 31.6681C174.742 31.4673 174.36 31.3669 173.92 31.3669C173.443 31.3669 173.027 31.4844 172.67 31.7192C172.318 31.9503 172.045 32.2533 171.852 32.6283C171.663 32.9995 171.568 33.4029 171.568 33.8385V34.8329C171.568 35.4162 171.67 35.9124 171.875 36.3215C172.083 36.7306 172.373 37.0431 172.744 37.259C173.116 37.4711 173.549 37.5772 174.045 37.5772C174.367 37.5772 174.661 37.5317 174.926 37.4408C175.191 37.3461 175.42 37.206 175.614 37.0204C175.807 36.8347 175.955 36.6056 176.057 36.3329L177.665 36.6226C177.536 37.0961 177.305 37.5109 176.972 37.8669C176.642 38.2192 176.227 38.4938 175.727 38.6908C175.231 38.884 174.665 38.9806 174.028 38.9806ZM179.764 28.2764C180.372 28.2604 180.884 28.2284 181.204 28.1964C182.228 28.0844 185.252 27.7964 188.196 27.5404C189.956 27.3964 191.444 27.3004 192.516 27.2684L192.532 28.5484C191.604 28.5324 190.212 28.5644 189.396 28.7884C187.108 29.5244 185.716 31.9724 185.716 33.8604C185.716 36.9804 188.644 37.9884 191.236 38.0844L190.772 39.3964C187.812 39.2844 184.452 37.7164 184.452 34.1324C184.452 31.6524 185.972 29.6044 187.428 28.7404C185.716 28.9164 181.636 29.3164 179.908 29.6844L179.764 28.2764ZM190.212 30.5004C190.58 31.0284 191.188 32.0204 191.54 32.7404L190.708 33.1084C190.34 32.3404 189.892 31.5244 189.412 30.8524L190.212 30.5004ZM191.956 29.8284C192.356 30.3564 192.98 31.3324 193.348 32.0364L192.532 32.4364C192.148 31.6684 191.668 30.8684 191.172 30.1964L191.956 29.8284ZM198.436 31.6844V37.3484H197.284V32.8044H195.252V31.6844H198.436ZM198.436 36.8684C199.188 38.0524 200.596 38.5964 202.5 38.6604C204.276 38.7404 207.972 38.6924 209.908 38.5644C209.764 38.8364 209.572 39.3964 209.524 39.7484C207.716 39.8284 204.292 39.8604 202.5 39.7804C200.388 39.7004 198.932 39.1404 197.94 37.8764C197.236 38.5644 196.5 39.2524 195.7 39.9564L195.076 38.7884C195.78 38.2764 196.644 37.5564 197.396 36.8684H198.436ZM195.396 26.4364L196.308 25.7804C197.3 26.5004 198.42 27.6044 198.916 28.3884L197.924 29.1404C197.476 28.3404 196.372 27.2204 195.396 26.4364ZM199.348 26.8044H209.412V27.8124H199.348V26.8044ZM199.108 35.2524H209.652V36.2604H199.108V35.2524ZM203.684 25.3804H204.868V38.0844H203.684V25.3804ZM201.22 31.9244V33.2044H207.412V31.9244H201.22ZM201.22 29.8124V31.0764H207.412V29.8124H201.22ZM200.116 28.9164H208.58V34.1164H200.116V28.9164ZM218.132 25.3644L219.188 25.6204C218.564 27.4284 217.524 29.1084 216.324 30.1964C216.164 29.9884 215.764 29.5884 215.54 29.3964C216.676 28.4364 217.62 26.9644 218.132 25.3644ZM221.636 25.4284L222.804 25.7164C222.404 26.5004 221.94 27.3164 221.572 27.8764L220.628 27.6044C220.98 26.9964 221.412 26.0524 221.636 25.4284ZM217.764 30.8204H224.98V31.6044H217.764V30.8204ZM216.308 34.4524H222.276V35.4604H216.308V34.4524ZM217.764 29.0284H224.98V29.8124H217.764V29.0284ZM220.82 27.5404H221.908V33.0124H220.82V27.5404ZM222.18 35.8284H225.044V36.7564H221.908L222.18 35.8284ZM224.612 35.8284H225.732C225.732 35.8284 225.7 36.1484 225.684 36.3244C225.46 38.4204 225.236 39.3164 224.852 39.7004C224.58 39.9404 224.292 40.0364 223.828 40.0524C223.444 40.0844 222.676 40.0844 221.876 40.0364C221.86 39.7324 221.732 39.3164 221.54 39.0284C222.34 39.0924 223.124 39.1084 223.396 39.1084C223.684 39.1084 223.844 39.0924 223.956 38.9804C224.228 38.7244 224.436 37.9404 224.612 35.9884V35.8284ZM218.58 34.7884H219.78C219.572 37.6364 218.452 39.1884 216.26 40.1484C216.116 39.9084 215.716 39.4604 215.46 39.2684C217.508 38.5164 218.452 37.1724 218.58 34.7884ZM218.164 27.1404H225.428V28.0524H217.348L218.164 27.1404ZM217.252 28.1484L218.324 27.1884V33.0924H217.252V28.1484ZM217.252 32.6444H225.588V33.5564H217.252V32.6444ZM210.948 33.6684C212.212 33.3164 214.116 32.7244 215.956 32.1164L216.116 33.2204C214.436 33.7964 212.644 34.3884 211.268 34.8364L210.948 33.6684ZM211.172 28.5964H216.036V29.7164H211.172V28.5964ZM213.188 25.3804H214.308V38.6924C214.308 39.3644 214.148 39.6844 213.748 39.8764C213.38 40.0684 212.756 40.1004 211.748 40.1004C211.7 39.8124 211.556 39.3164 211.396 38.9804C212.1 38.9964 212.708 38.9964 212.9 38.9804C213.092 38.9804 213.188 38.9324 213.188 38.6924V25.3804ZM221.956 34.4524H223.044C222.82 35.4924 222.532 36.7244 222.292 37.5564L221.252 37.3964C221.508 36.5964 221.78 35.4124 221.956 34.4524Z" fill="#38B6FF"/>
</svg>
