<svg width="46" height="50" viewBox="0 0 46 50" fill="none" xmlns="http://www.w3.org/2000/svg">
<g clip-path="url(#clip0_398_110)">
<path d="M33.6412 18.0036C36.8616 20.3045 40.8067 21.6583 45.0676 21.6583V13.4634C44.2611 13.4636 43.4569 13.3795 42.6679 13.2124V19.6629C38.4074 19.6629 34.4628 18.3093 31.2417 16.0086V32.7321C31.2417 41.0981 24.4562 47.8795 16.0866 47.8795C12.9636 47.8795 10.0609 46.9359 7.64966 45.3174C10.4017 48.13 14.2397 49.8747 18.4855 49.8747C26.8559 49.8747 33.6416 43.0933 33.6416 34.7269V18.0036H33.6412ZM36.6016 9.73603C34.9557 7.93896 33.875 5.61655 33.6412 3.04896V1.995H31.3672C31.9397 5.25827 33.8922 8.0462 36.6016 9.73603ZM12.9435 38.8978C12.024 37.6928 11.5269 36.2186 11.5291 34.7029C11.5291 30.8767 14.6328 27.7743 18.4619 27.7743C19.1754 27.7739 19.8847 27.8834 20.5648 28.099V19.7209C19.77 19.6121 18.9679 19.5657 18.1662 19.5828V26.1038C17.4857 25.8881 16.7761 25.7787 16.0622 25.7793C12.2333 25.7793 9.12983 28.8814 9.12983 32.7081C9.12983 35.414 10.681 37.7565 12.9435 38.8978Z" fill="#FF004F"/>
<path d="M31.2419 16.0084C34.4632 18.3091 38.4075 19.6628 42.6682 19.6628V13.2122C40.2899 12.7059 38.1845 11.4638 36.6016 9.73603C33.8921 8.04603 31.9399 5.2581 31.3675 1.995H25.3945V34.7265C25.3809 38.5424 22.2826 41.6321 18.4618 41.6321C16.2104 41.6321 14.21 40.5595 12.9433 38.8976C10.6813 37.7565 9.12988 35.4138 9.12988 32.7083C9.12988 28.8819 12.2333 25.7795 16.0623 25.7795C16.7959 25.7795 17.503 25.8936 18.1663 26.104V19.5829C9.9435 19.7528 3.33057 26.4679 3.33057 34.7267C3.33057 38.8495 4.97729 42.5869 7.65005 45.3178C10.0613 46.9359 12.9638 47.8798 16.0869 47.8798C24.4568 47.8798 31.2421 41.0979 31.2421 32.7321L31.2419 16.0084Z" fill="black"/>
<path d="M42.668 13.2121V11.4683C40.5233 11.4715 38.421 10.8712 36.6014 9.73603C38.2121 11.4985 40.333 12.7138 42.668 13.2124M31.3671 1.99483C31.3126 1.68304 31.2707 1.36916 31.2416 1.05397V0H22.9944V32.7319C22.9813 36.5474 19.883 39.6371 16.0619 39.6371C14.9787 39.6387 13.9103 39.3855 12.943 38.8979C14.2097 40.5595 16.21 41.6319 18.4614 41.6319C22.2821 41.6319 25.3807 38.5426 25.3942 34.7267V1.995L31.3671 1.99483ZM18.1664 19.5828V17.726C17.4773 17.6318 16.7825 17.5847 16.0869 17.585C7.71625 17.585 0.930908 24.3667 0.930908 32.7319C0.930908 37.9766 3.59763 42.5986 7.65005 45.3174C4.97729 42.5867 3.33056 38.8491 3.33056 34.7266C3.33056 26.4679 9.94332 19.7526 18.1664 19.5828Z" fill="#00F2EA"/>
</g>
<defs>
<clipPath id="clip0_398_110">
<rect width="44.14" height="50" fill="white" transform="translate(0.929932)"/>
</clipPath>
</defs>
</svg>
