<svg width="326" height="60" viewBox="0 0 326 60" fill="none" xmlns="http://www.w3.org/2000/svg">
<rect x="1" y="1" width="324" height="58" rx="7" stroke="#38B6FF" stroke-width="2"/>
<path d="M127.5 24.1681L130.284 28.7192H130.375L133.159 24.1681H135.193L131.568 29.9863L135.216 35.8044H133.17L130.375 31.3158H130.284L127.489 35.8044H125.443L129.153 29.9863L125.466 24.1681H127.5ZM136.904 25.2764C137.512 25.2604 138.024 25.2284 138.344 25.1964C139.368 25.0844 142.392 24.7964 145.336 24.5404C147.096 24.3964 148.584 24.3004 149.656 24.2684L149.672 25.5484C148.744 25.5324 147.352 25.5644 146.536 25.7884C144.248 26.5244 142.856 28.9724 142.856 30.8604C142.856 33.9804 145.784 34.9884 148.376 35.0844L147.912 36.3964C144.952 36.2844 141.592 34.7164 141.592 31.1324C141.592 28.6524 143.112 26.6044 144.568 25.7404C142.856 25.9164 138.776 26.3164 137.048 26.6844L136.904 25.2764ZM147.352 27.5004C147.72 28.0284 148.328 29.0204 148.68 29.7404L147.848 30.1084C147.48 29.3404 147.032 28.5244 146.552 27.8524L147.352 27.5004ZM149.096 26.8284C149.496 27.3564 150.12 28.3324 150.488 29.0364L149.672 29.4364C149.288 28.6684 148.808 27.8684 148.312 27.1964L149.096 26.8284ZM155.576 28.6844V34.3484H154.424V29.8044H152.392V28.6844H155.576ZM155.576 33.8684C156.328 35.0524 157.736 35.5964 159.64 35.6604C161.416 35.7404 165.112 35.6924 167.048 35.5644C166.904 35.8364 166.712 36.3964 166.664 36.7484C164.856 36.8284 161.432 36.8604 159.64 36.7804C157.528 36.7004 156.072 36.1404 155.08 34.8764C154.376 35.5644 153.64 36.2524 152.84 36.9564L152.216 35.7884C152.92 35.2764 153.784 34.5564 154.536 33.8684H155.576ZM152.536 23.4364L153.448 22.7804C154.44 23.5004 155.56 24.6044 156.056 25.3884L155.064 26.1404C154.616 25.3404 153.512 24.2204 152.536 23.4364ZM156.488 23.8044H166.552V24.8124H156.488V23.8044ZM156.248 32.2524H166.792V33.2604H156.248V32.2524ZM160.824 22.3804H162.008V35.0844H160.824V22.3804ZM158.36 28.9244V30.2044H164.552V28.9244H158.36ZM158.36 26.8124V28.0764H164.552V26.8124H158.36ZM157.256 25.9164H165.72V31.1164H157.256V25.9164ZM175.272 22.3644L176.328 22.6204C175.704 24.4284 174.664 26.1084 173.464 27.1964C173.304 26.9884 172.904 26.5884 172.68 26.3964C173.816 25.4364 174.76 23.9644 175.272 22.3644ZM178.776 22.4284L179.944 22.7164C179.544 23.5004 179.08 24.3164 178.712 24.8764L177.768 24.6044C178.12 23.9964 178.552 23.0524 178.776 22.4284ZM174.904 27.8204H182.12V28.6044H174.904V27.8204ZM173.448 31.4524H179.416V32.4604H173.448V31.4524ZM174.904 26.0284H182.12V26.8124H174.904V26.0284ZM177.96 24.5404H179.048V30.0124H177.96V24.5404ZM179.32 32.8284H182.184V33.7564H179.048L179.32 32.8284ZM181.752 32.8284H182.872C182.872 32.8284 182.84 33.1484 182.824 33.3244C182.6 35.4204 182.376 36.3164 181.992 36.7004C181.72 36.9404 181.432 37.0364 180.968 37.0524C180.584 37.0844 179.816 37.0844 179.016 37.0364C179 36.7324 178.872 36.3164 178.68 36.0284C179.48 36.0924 180.264 36.1084 180.536 36.1084C180.824 36.1084 180.984 36.0924 181.096 35.9804C181.368 35.7244 181.576 34.9404 181.752 32.9884V32.8284ZM175.72 31.7884H176.92C176.712 34.6364 175.592 36.1884 173.4 37.1484C173.256 36.9084 172.856 36.4604 172.6 36.2684C174.648 35.5164 175.592 34.1724 175.72 31.7884ZM175.304 24.1404H182.568V25.0524H174.488L175.304 24.1404ZM174.392 25.1484L175.464 24.1884V30.0924H174.392V25.1484ZM174.392 29.6444H182.728V30.5564H174.392V29.6444ZM168.088 30.6684C169.352 30.3164 171.256 29.7244 173.096 29.1164L173.256 30.2204C171.576 30.7964 169.784 31.3884 168.408 31.8364L168.088 30.6684ZM168.312 25.5964H173.176V26.7164H168.312V25.5964ZM170.328 22.3804H171.448V35.6924C171.448 36.3644 171.288 36.6844 170.888 36.8764C170.52 37.0684 169.896 37.1004 168.888 37.1004C168.84 36.8124 168.696 36.3164 168.536 35.9804C169.24 35.9964 169.848 35.9964 170.04 35.9804C170.232 35.9804 170.328 35.9324 170.328 35.6924V22.3804ZM179.096 31.4524H180.184C179.96 32.4924 179.672 33.7244 179.432 34.5564L178.392 34.3964C178.648 33.5964 178.92 32.4124 179.096 31.4524Z" fill="#38B6FF"/>
</svg>
