<svg width="51" height="50" viewBox="0 0 51 50" fill="none" xmlns="http://www.w3.org/2000/svg">
<path d="M20.9032 31.25L31.7157 25L20.9032 18.75V31.25ZM44.9866 14.9375C45.2574 15.9166 45.4449 17.2291 45.5699 18.8958C45.7157 20.5625 45.7782 22 45.7782 23.25L45.9032 25C45.9032 29.5625 45.5699 32.9166 44.9866 35.0625C44.4657 36.9375 43.2574 38.1458 41.3824 38.6666C40.4032 38.9375 38.6116 39.125 35.8616 39.25C33.1532 39.3958 30.6741 39.4583 28.3824 39.4583L25.0699 39.5833C16.3407 39.5833 10.9032 39.25 8.75741 38.6666C6.88241 38.1458 5.67407 36.9375 5.15324 35.0625C4.88241 34.0833 4.69491 32.7708 4.56991 31.1041C4.42407 29.4375 4.36157 28 4.36157 26.75L4.23657 25C4.23657 20.4375 4.56991 17.0833 5.15324 14.9375C5.67407 13.0625 6.88241 11.8541 8.75741 11.3333C9.73657 11.0625 11.5282 10.875 14.2782 10.75C16.9866 10.6041 19.4657 10.5416 21.7574 10.5416L25.0699 10.4166C33.7991 10.4166 39.2366 10.75 41.3824 11.3333C43.2574 11.8541 44.4657 13.0625 44.9866 14.9375Z" fill="#FF0000"/>
</svg>
