<svg width="300" height="90" viewBox="0 0 300 90" fill="none" xmlns="http://www.w3.org/2000/svg">
<path d="M56.875 59.0928C54.265 58.9328 53.535 58.9128 50.305 58.8428C48.215 58.7928 46.965 58.6628 44.885 58.5128C42.275 58.5628 39.665 58.6028 36.945 58.6428C35.065 58.8128 33.715 58.4628 31.835 58.4228C29.955 58.3828 28.395 58.0328 26.515 58.0928C24.845 58.0528 23.905 58.1428 22.655 58.1128C22.425 63.6428 22.105 68.8528 21.755 74.8028C21.565 78.4528 21.575 78.1428 21.245 83.6628C16.665 83.1428 11.125 83.4328 2.98502 82.9428C3.20502 77.9328 3.34502 76.3728 3.58502 70.2128C3.78502 66.1428 3.94502 63.6428 4.24502 59.5728C4.36502 54.4628 4.47502 49.2428 4.59502 44.0228C4.57502 40.3628 5.29502 31.4028 5.48502 27.7528C5.56502 24.1028 6.05502 21.0828 6.13502 17.4328C6.24502 12.7328 6.28502 10.9628 6.48502 6.37276C8.05502 6.41276 9.61502 6.54276 11.285 6.37276C12.125 6.28276 12.845 6.61276 13.685 6.63276C16.185 6.69276 18.695 6.53276 21.095 6.90276C22.445 7.03276 23.705 6.85276 24.955 7.09276C24.625 12.4128 24.465 14.9128 24.245 20.2328C24.125 25.6628 23.755 32.9628 23.495 39.7428C24.955 39.7728 26.205 39.8028 27.985 39.8428C32.475 39.8428 36.025 39.9228 40.405 40.0128C44.785 40.1028 48.335 40.2928 52.715 40.5028C54.595 40.6528 54.385 40.5428 57.305 40.8128C56.995 45.4028 57.185 50.8328 56.895 59.0728L56.875 59.0928Z" fill="#EA5755"/>
<path d="M132.005 58.945C128.225 60.785 125.375 61.905 121.185 63.845C114.245 67.005 110.875 67.725 103.835 70.275C96.795 72.725 86.685 75.585 79.545 77.315C76.485 78.135 76.685 77.725 74.335 78.335C74.135 73.335 74.135 74.765 74.025 71.495C73.825 64.045 73.825 56.595 73.715 49.145C73.615 41.595 73.715 36.085 73.615 28.525C73.515 23.935 73.415 16.585 73.305 11.985C74.535 11.785 75.755 11.885 76.985 11.885C79.435 11.575 81.885 11.785 84.235 11.785C85.055 11.785 90.155 11.685 91.785 11.685C91.785 15.665 91.785 22.295 91.885 26.385C91.885 29.545 91.785 32.815 91.885 36.085C91.885 39.245 92.085 40.475 91.985 43.745C91.885 47.625 91.885 51.505 91.885 55.385C95.355 54.365 98.525 53.445 100.055 52.935C104.345 51.405 105.565 50.995 108.625 49.875C111.685 48.755 113.825 47.225 116.895 46.095C120.675 44.765 120.565 44.365 124.445 42.625C124.955 44.055 127.205 48.345 127.505 49.055C128.325 51.305 129.855 53.345 130.465 55.685C130.875 56.915 131.795 57.725 131.995 58.955L132.005 58.945Z" fill="#F6D75C"/>
<path d="M218.535 71.0124C219.665 72.8624 221.415 74.3024 222.335 76.2524C221.105 76.9724 219.975 77.8924 218.635 78.5124C216.995 79.3324 215.345 80.3624 213.805 81.4924C212.265 82.6224 210.415 83.1424 208.975 84.2724C207.125 85.1924 205.075 85.5024 203.225 86.2224C200.755 87.1424 198.295 87.4524 195.725 87.7624C193.875 88.1724 192.125 87.4524 190.385 87.3524C189.355 87.2524 188.335 87.3524 187.305 87.2524C185.145 86.8424 183.095 86.2224 181.035 85.6124C179.495 85.1024 178.055 84.3824 176.515 83.9624C175.485 83.5524 174.255 83.4524 173.225 82.8324C171.785 81.9024 170.035 81.4924 168.705 80.2624C167.265 79.0324 165.825 77.6924 164.595 76.2524C163.775 75.2224 162.845 74.1924 161.825 73.4724C160.595 72.8524 159.665 71.3124 159.055 70.8024C160.085 69.6724 161.105 68.5424 162.135 67.4124C163.065 66.2824 163.985 65.1524 164.705 63.9224C165.215 63.1024 166.045 62.5824 166.555 61.8624C167.995 60.2224 169.535 58.7824 170.975 57.1324C173.235 59.0824 175.395 61.0424 177.655 62.9924C178.685 63.8124 179.405 65.0424 180.635 65.7624C182.795 67.1024 185.255 67.9224 187.725 68.4324C189.065 68.5324 190.395 69.0524 191.735 69.2524C192.665 69.4524 193.685 69.0424 194.615 68.9424C196.055 68.8424 197.595 68.7324 198.935 68.1224C200.985 67.0924 202.945 66.1724 204.795 64.8324C206.745 63.4924 209.525 61.9524 211.575 60.8224C212.605 62.1624 213.635 63.6024 214.455 65.0324C215.685 67.0824 217.435 68.8324 218.565 70.9924L218.535 71.0124Z" fill="#4AAAE0"/>
<path d="M167.155 30.3124C167.155 30.3124 167.465 28.0524 167.565 27.0224C167.975 24.1424 168.285 21.3724 168.905 18.5924C169.005 17.8724 169.005 17.2524 169.105 16.5324C169.105 14.9924 169.615 13.5524 169.825 12.0124C170.955 12.2124 172.085 12.2124 173.215 12.3224C175.785 12.6324 178.245 13.3524 180.815 13.7624C181.945 13.9724 182.975 13.9724 184.005 14.0724C185.345 14.2824 186.575 14.4824 187.905 14.6924C192.735 15.1024 197.465 15.7224 202.295 16.2324C205.375 16.5424 208.355 17.2624 211.335 17.4624C212.565 17.4624 213.695 17.9724 214.935 17.9724C215.445 17.9724 216.065 17.9724 216.685 18.0724C215.965 20.9524 215.655 23.8324 215.045 26.7024C213.705 30.9124 212.785 35.2324 211.445 39.4424C210.935 41.0824 210.415 42.8324 210.105 44.6824C210.105 45.3024 209.795 45.8124 209.595 46.4324C204.765 45.4024 200.145 43.9624 195.315 43.0424C194.085 42.7324 192.745 42.7324 191.515 42.3224C191.825 41.2924 192.235 40.2724 192.445 39.1324C192.545 37.9024 193.165 36.7724 193.375 35.5324C193.475 34.6024 192.755 33.7824 191.835 33.6824C187.215 33.0624 182.485 32.2424 177.755 31.9324C176.625 32.0324 175.395 31.9324 174.265 31.6224C172.005 30.9024 169.535 30.7024 167.175 30.2824L167.155 30.3124Z" fill="#4AAAE0"/>
<path d="M191.825 10.8924C191.825 10.8924 192.715 9.80242 193.105 9.30242C194.255 7.92242 195.315 6.56242 196.515 5.29242C196.805 4.94242 197.005 4.62242 197.295 4.28242C197.815 3.48242 198.515 2.87242 199.125 2.13242C199.525 2.54242 200.005 2.85242 200.445 3.22242C201.415 4.08242 202.205 5.13242 203.145 6.04242C203.545 6.46242 203.975 6.74242 204.375 7.07242C204.865 7.54242 205.315 7.98242 205.805 8.46242C207.685 9.99242 209.465 11.6024 211.315 13.1924C212.505 14.1924 213.505 15.3824 214.685 16.3024C215.205 16.6424 215.505 17.2124 216.015 17.5524C216.225 17.6924 216.485 17.8624 216.715 18.0824C215.445 19.3824 214.335 20.7924 213.105 22.1124C211.125 23.9324 209.275 25.9224 207.285 27.7424C206.515 28.4524 205.705 29.2224 204.955 30.1024C204.745 30.4224 204.445 30.6024 204.145 30.8724C202.465 29.0224 201.015 27.0124 199.305 25.2124C198.895 24.7124 198.335 24.3524 197.955 23.8024C198.435 23.3524 198.955 22.9324 199.415 22.4024C199.875 21.7924 200.515 21.3724 201.015 20.7924C201.375 20.3424 201.345 19.7224 200.995 19.4124C199.265 17.8324 197.565 16.1124 195.685 14.6624C195.175 14.4124 194.695 14.0224 194.325 13.5524C193.625 12.5624 192.655 11.7824 191.805 10.9224L191.825 10.8924Z" fill="#4AAAE0"/>
<path d="M160.065 79.6224C160.065 79.6224 158.575 79.1224 157.885 78.9124C155.985 78.2624 154.145 77.6924 152.345 76.9024C151.865 76.7424 151.455 76.6624 150.975 76.4924C149.925 76.2924 149.025 75.7524 148.005 75.4124C148.295 74.6624 148.435 73.8824 148.655 73.1224C149.195 71.3924 150.005 69.7924 150.625 68.0824C150.915 67.3324 151.045 66.6224 151.255 65.9324C151.565 65.0424 151.865 64.2224 152.185 63.3324C153.095 60.0624 154.135 56.8924 155.115 53.6424C155.725 51.5624 156.605 49.6024 157.135 47.5824C157.295 46.7324 157.795 46.0224 157.955 45.1724C158.025 44.8224 158.105 44.3924 158.255 43.9824C160.115 44.8524 162.025 45.4324 163.895 46.2224C166.575 47.6824 169.385 48.8724 172.075 50.3424C173.125 50.9124 174.245 51.4824 175.455 51.9324C175.875 52.0124 176.185 52.2924 176.575 52.5124C175.245 55.7024 173.665 58.6924 172.405 61.8924C172.035 62.7024 171.865 63.6224 171.425 64.4124C170.765 64.0724 170.125 63.6524 169.385 63.3624C168.565 63.1324 167.875 62.5624 167.065 62.2624C166.455 62.0724 165.795 62.4624 165.605 63.0824C164.585 66.1824 163.405 69.3224 162.585 72.5324C162.505 73.3224 162.275 74.1524 161.915 74.8924C161.135 76.3524 160.675 78.0224 160.085 79.5924L160.065 79.6224Z" fill="#4AAAE0"/>
<path d="M182.255 63.1324C182.255 63.1324 182.675 62.0724 182.885 61.6024C183.415 60.2524 183.955 58.9624 184.375 57.6124C184.505 57.2724 184.655 57.0024 184.785 56.6624C185.155 55.9824 185.295 55.2424 185.585 54.5224C185.095 54.3724 184.655 54.1324 184.185 53.9324C183.105 53.5224 181.975 53.3124 180.875 52.9524C180.385 52.8024 179.985 52.5824 179.555 52.4124C178.985 52.2224 178.455 52.0424 177.885 51.8524C175.905 51.0024 173.905 50.2724 171.895 49.4724C170.615 48.9524 169.285 48.6324 168.065 48.0924C167.585 47.8324 167.015 47.8124 166.535 47.5524C166.335 47.4424 166.095 47.3124 165.825 47.2224C165.415 48.6424 164.845 49.9724 164.405 51.3724C163.915 53.5124 163.245 55.6024 162.755 57.7424C162.565 58.5724 162.345 59.4524 162.025 60.3324C161.875 60.6024 161.875 60.8924 161.805 61.2124C163.935 61.7824 166.085 62.1324 168.195 62.7524C168.755 62.8824 169.275 63.1624 169.855 63.2424C169.985 62.7224 170.065 62.1824 170.255 61.6424C170.515 61.0824 170.535 60.4524 170.755 59.8624C170.935 59.4324 171.415 59.2224 171.795 59.3724C173.745 60.0824 175.795 60.7224 177.705 61.5924C178.125 61.8824 178.625 62.0924 179.145 62.2024C180.195 62.3624 181.215 62.8024 182.235 63.1224L182.255 63.1324Z" fill="#4AAAE0"/>
<path d="M297.035 58.945C293.255 60.785 290.405 61.905 286.215 63.845C279.275 67.005 275.905 67.725 268.865 70.275C261.825 72.725 251.715 75.585 244.575 77.315C241.515 78.135 241.715 77.725 239.365 78.335C239.165 73.335 239.165 74.765 239.055 71.495C238.855 64.045 238.855 56.595 238.745 49.145C238.645 41.595 238.745 36.085 238.645 28.525C238.545 23.935 238.445 16.585 238.335 11.985C239.565 11.785 240.785 11.885 242.015 11.885C244.465 11.575 246.915 11.785 249.265 11.785C250.085 11.785 255.185 11.685 256.815 11.685C256.815 15.665 256.815 22.295 256.915 26.385C256.915 29.545 256.815 32.815 256.915 36.085C256.915 39.245 257.115 40.475 257.015 43.745C256.915 47.625 256.915 51.505 256.915 55.385C260.385 54.365 263.555 53.445 265.085 52.935C269.375 51.405 270.595 50.995 273.655 49.875C276.715 48.755 278.855 47.225 281.925 46.095C285.705 44.765 285.595 44.365 289.475 42.625C289.985 44.055 292.235 48.345 292.535 49.055C293.355 51.305 294.885 53.345 295.495 55.685C295.905 56.915 296.825 57.725 297.025 58.955L297.035 58.945Z" fill="#F6D75C"/>
</svg>
